# xmcd CD database file
#
# Track frame offsets:
#	150
#	23737
#	41066
#	59580
#	79968
#	98720
#	116182
#	136757
#	154397
#	170680
#	190660
#	209363
#	226802
#
# Disc length: 3205 seconds
#
# Revision: 1
# Processed by: cddbd v1.5.2PL0 Copyright (c) Steve Scherf et al.
# Submitted via: jetAudio 7
#
DISCID=b10c830d
DTITLE=Daniela Romo - Para Soñar - CD 2
DYEAR=2012
DGENRE=Latin
TTITLE0=Con Las Alas Del Alma
TTITLE1=Me Vuelves Loca (Dueto Con Armando Manzanero)
TTITLE2=Quiero Amanecer Con Alguien
TTITLE3=Matame
TTITLE4=Para Que Te Quedes Conmigo
TTITLE5=Te Amare Hasta El Final (Dueto Con Benny Ibarra)
TTITLE6=Desnuda
TTITLE7=Enamorada De Ti
TTITLE8=Pensar En Ti (Dueto Con Pandora)
TTITLE9=Que Sabes Tu
TTITLE10=Duele
TTITLE11=Poesias
TTITLE12=Cuando Hay Amor No Hay Pecado (Bonus Track)
EXTD=
EXTT0=
EXTT1=
EXTT2=
EXTT3=
EXTT4=
EXTT5=
EXTT6=
EXTT7=
EXTT8=
EXTT9=
EXTT10=
EXTT11=
EXTT12=
PLAYORDER=
